<svg xmlns="http://www.w3.org/2000/svg" xmlns:xlink="http://www.w3.org/1999/xlink"><symbol id="boat"><path d="M39.555 12.056 1.573 8.068c-.292-.03-.489.265-.338.5C3.663 12.34 9.41 15 16.1 15h22.658c.154 0 .29-.093.335-.23l.757-2.294c.065-.195-.077-.397-.295-.42ZM41.89 5.518a.707.707 0 0 0-.497-.295l-10.5-1.305c-.378-.046-.735.204-.787.56-.051.357.219.686.602.734l1.188.147c.174.022.304.16.304.323V6.69c0 .194-.18.345-.387.324l-2.8-.28a.335.335 0 0 1-.313-.323V3.556c0-.064.02-.127.059-.18l1.224-1.71a.614.614 0 0 0 .042-.656.706.706 0 0 0-.592-.358L14.733 0a.746.746 0 0 0-.603.273s-2.797 3.662-3.41 4.469a.359.359 0 0 1-.323.134l-9.623-.96a.735.735 0 0 0-.542.164.636.636 0 0 0-.232.485c0 .628.088 1.244.253 1.841a.35.35 0 0 0 .304.243l39.548 4.152a.351.351 0 0 0 .374-.228l1.49-4.512a.617.617 0 0 0-.08-.543ZM20.2 1.905l-.545 3.562a.342.342 0 0 1-.378.279c-1.366-.129-6.497-.631-6.497-.631-.266-.027-.403-.31-.248-.514l2.405-3.137a.36.36 0 0 1 .301-.136l4.633.205c.206.01.359.182.33.372Zm7.59.476-.431.6a.31.31 0 0 0-.059.18v3.04c0 .195-.18.346-.387.325l-5.555-.554c-.197-.02-.338-.188-.31-.37l.567-3.694c.025-.167.182-.288.363-.28l5.537.246c.272.012.426.295.274.507ZM36.4 7.11c0 .193-.18.345-.387.324 0 0-1.453-.153-2.104-.224a.334.334 0 0 1-.309-.324v-.943c0-.197.186-.35.396-.324l2.1.261c.174.022.304.16.304.324v.906Zm3.866-.328-.26.786a.351.351 0 0 1-.371.228l-1.523-.152a.336.336 0 0 1-.312-.324v-.855c0-.197.186-.35.396-.323l1.782.22c.214.028.352.227.288.42Z" fill="#011C40"/></symbol><symbol id="icon-burger"><path d="M0 1h24M0 7h24M0 13h24" stroke="#F9FBFD" stroke-width="2"/></symbol><symbol id="icon-close"><path d="m1 1 6.5 6.5M14 14 7.5 7.5m0 0L14 1 1 14" stroke="#011C40" stroke-width="2"/></symbol><symbol id="liner"><path d="m4.405 16.396 8.811-6.46a.6.6 0 0 1 .655 0l8.854 6.46V8.688c.049-1.057-.75-1.954-1.785-2.003l-.047-.002H6.237c-1.035.024-1.856.9-1.833 1.958l.001.047v7.708ZM15.746 0h-4.362v5.347h4.362V0Z" fill="#011C40"/><path d="M24.296 30.164 27 21.03l-3.795-2.718-.262-.134-8.941-6.37v18.801h-.48l-.83-.044V11.807L0 21.03l2.792 9.09 1.612 1.87h2.754s5.089.007 6.364 0c1.298.022 3.603 0 3.603 0h5.688l1.483-1.826Z" fill="#011C40"/></symbol><symbol id="pin"><path d="M15.364 15.556 9 22l-6.364-6.444a9.149 9.149 0 0 1-2.463-4.665 9.219 9.219 0 0 1 .512-5.266A9.09 9.09 0 0 1 4 1.535 8.921 8.921 0 0 1 9 0c1.78 0 3.52.534 5 1.536a9.089 9.089 0 0 1 3.315 4.09 9.22 9.22 0 0 1 .512 5.264 9.149 9.149 0 0 1-2.463 4.666ZM9 11.138c.53 0 1.04-.214 1.414-.594a2.038 2.038 0 0 0 0-2.864A1.988 1.988 0 0 0 9 7.089c-.53 0-1.04.213-1.414.593C7.21 8.06 7 8.576 7 9.113c0 .537.21 1.052.586 1.431.375.38.884.594 1.414.594Z" fill="#011C40"/></symbol><symbol id="tel"><path d="M18 13.42v3.536a1 1 0 0 1-.93.998c-.437.03-.794.046-1.07.046C7.163 18 0 10.837 0 2c0-.276.015-.633.046-1.07A1 1 0 0 1 1.044 0H4.58a.5.5 0 0 1 .498.45c.023.23.044.413.064.552A13.9 13.9 0 0 0 6.35 5.003c.095.2.033.439-.147.567L4.045 7.112a13.047 13.047 0 0 0 6.844 6.844l1.54-2.154a.462.462 0 0 1 .573-.149 13.9 13.9 0 0 0 4 1.205c.139.02.322.042.55.064a.5.5 0 0 1 .449.498H18Z" fill="#011C40"/></symbol><symbol id="tick"><path d="M1 2.5 5.286 7 11 1" stroke="#101A56"/></symbol><symbol id="ticks"><path d="M28.753 2.215 26.44 0 16.073 9.933l2.314 2.215 10.366-9.933ZM35.694 0 18.38 16.57l-6.819-6.528-2.313 2.215L18.379 21 38 2.215 35.694 0ZM0 12.257 9.132 21l2.314-2.215-9.132-8.743L0 12.257Z" fill="#011C40"/></symbol></svg>